<svg width="20" height="21" viewBox="0 0 20 21" fill="none" xmlns="http://www.w3.org/2000/svg">
<path d="M4.0104 1.04688L1.17706 4.64687V17.2469C1.17706 17.7243 1.37607 18.1821 1.73031 18.5197C2.08454 18.8572 2.56499 19.0469 3.06595 19.0469H16.2882C16.7891 19.0469 17.2696 18.8572 17.6238 18.5197C17.9781 18.1821 18.1771 17.7243 18.1771 17.2469V4.64687L15.3437 1.04688H4.0104Z" stroke="#33363F" stroke-width="2" stroke-linecap="round" stroke-linejoin="round"/>
<path d="M1.17706 4.64722H18.1771" stroke="#33363F" stroke-width="2" stroke-linecap="round" stroke-linejoin="round"/>
<path d="M13.4553 8.24731C13.4553 9.2021 13.0573 10.1178 12.3488 10.7929C11.6403 11.4681 10.6794 11.8473 9.67749 11.8473C8.67557 11.8473 7.71467 11.4681 7.0062 10.7929C6.29773 10.1178 5.89972 9.2021 5.89972 8.24731" stroke="#33363F" stroke-width="2" stroke-linecap="round" stroke-linejoin="round"/>
</svg>
