<svg width="18" height="19" viewBox="0 0 18 19" fill="none" xmlns="http://www.w3.org/2000/svg">
<path d="M3.36585 1L0.727539 4.41285V16.3578C0.727539 16.8104 0.912849 17.2444 1.2427 17.5645C1.57255 17.8845 2.01993 18.0643 2.48641 18.0643H14.7985C15.265 18.0643 15.7124 17.8845 16.0423 17.5645C16.3721 17.2444 16.5574 16.8104 16.5574 16.3578V4.41285L13.9191 1H3.36585Z" stroke="white" stroke-width="1.21739" stroke-linecap="round" stroke-linejoin="round"/>
<path d="M0.727539 4.41263H16.5574" stroke="white" stroke-width="1.21739" stroke-linecap="round" stroke-linejoin="round"/>
<path d="M12.1605 7.82574C12.1605 8.7309 11.7899 9.59897 11.1302 10.239C10.4705 10.8791 9.57571 11.2386 8.64275 11.2386C7.70978 11.2386 6.81503 10.8791 6.15532 10.239C5.49562 9.59897 5.125 8.7309 5.125 7.82574" stroke="white" stroke-width="1.21739" stroke-linecap="round" stroke-linejoin="round"/>
</svg>
