<svg width="12" height="9" viewBox="0 0 12 9" fill="none" xmlns="http://www.w3.org/2000/svg">
<path d="M3.97026 1.3898C3.78618 1.3898 3.60965 1.46293 3.47949 1.59309C3.34933 1.72325 3.2762 1.89978 3.2762 2.08385C3.2762 2.26793 3.34933 2.44446 3.47949 2.57462C3.60965 2.70478 3.78618 2.77791 3.97026 2.77791C4.15433 2.77791 4.33086 2.70478 4.46102 2.57462C4.59118 2.44446 4.66431 2.26793 4.66431 2.08385C4.66431 1.89978 4.59118 1.72325 4.46102 1.59309C4.33086 1.46293 4.15433 1.3898 3.97026 1.3898ZM2.00609 1.3898C2.14948 0.983413 2.4154 0.631506 2.76719 0.382589C3.11897 0.133671 3.53931 0 3.97026 0C4.4012 0 4.82154 0.133671 5.17332 0.382589C5.52511 0.631506 5.79103 0.983413 5.93442 1.3898H10.9108C11.0948 1.3898 11.2714 1.46293 11.4015 1.59309C11.5317 1.72325 11.6048 1.89978 11.6048 2.08385C11.6048 2.26793 11.5317 2.44446 11.4015 2.57462C11.2714 2.70478 11.0948 2.77791 10.9108 2.77791H5.93442C5.79103 3.1843 5.52511 3.5362 5.17332 3.78512C4.82154 4.03404 4.4012 4.16771 3.97026 4.16771C3.53931 4.16771 3.11897 4.03404 2.76719 3.78512C2.4154 3.5362 2.14948 3.1843 2.00609 2.77791H1.19405C1.00998 2.77791 0.833443 2.70478 0.703283 2.57462C0.573123 2.44446 0.5 2.26793 0.5 2.08385C0.5 1.89978 0.573123 1.72325 0.703283 1.59309C0.833443 1.46293 1.00998 1.3898 1.19405 1.3898H2.00609ZM8.13456 5.55411C7.95049 5.55411 7.77395 5.62723 7.6438 5.75739C7.51364 5.88755 7.44051 6.06409 7.44051 6.24816C7.44051 6.43224 7.51364 6.60877 7.6438 6.73893C7.77395 6.86909 7.95049 6.94221 8.13456 6.94221C8.31864 6.94221 8.49517 6.86909 8.62533 6.73893C8.75549 6.60877 8.82861 6.43224 8.82861 6.24816C8.82861 6.06409 8.75549 5.88755 8.62533 5.75739C8.49517 5.62723 8.31864 5.55411 8.13456 5.55411ZM6.1704 5.55411C6.31379 5.14772 6.57971 4.79581 6.93149 4.5469C7.28328 4.29798 7.70362 4.16431 8.13456 4.16431C8.56551 4.16431 8.98584 4.29798 9.33763 4.5469C9.68942 4.79581 9.95534 5.14772 10.0987 5.55411H10.9108C11.0948 5.55411 11.2714 5.62723 11.4015 5.75739C11.5317 5.88755 11.6048 6.06409 11.6048 6.24816C11.6048 6.43224 11.5317 6.60877 11.4015 6.73893C11.2714 6.86909 11.0948 6.94221 10.9108 6.94221H10.0987C9.95534 7.3486 9.68942 7.70051 9.33763 7.94943C8.98584 8.19834 8.56551 8.33202 8.13456 8.33202C7.70362 8.33202 7.28328 8.19834 6.93149 7.94943C6.57971 7.70051 6.31379 7.3486 6.1704 6.94221H1.19405C1.00998 6.94221 0.833443 6.86909 0.703283 6.73893C0.573123 6.60877 0.5 6.43224 0.5 6.24816C0.5 6.06409 0.573123 5.88755 0.703283 5.75739C0.833443 5.62723 1.00998 5.55411 1.19405 5.55411H6.1704Z" fill="#F55A51"/>
</svg>
