<svg width="15" height="12" viewBox="0 0 15 12" fill="none" xmlns="http://www.w3.org/2000/svg">
<path d="M4.65047 1.86247C4.4038 1.86247 4.16722 1.96046 3.9928 2.13489C3.81837 2.30931 3.72038 2.54589 3.72038 2.79256C3.72038 3.03924 3.81837 3.27581 3.9928 3.45024C4.16722 3.62466 4.4038 3.72266 4.65047 3.72266C4.89715 3.72266 5.13372 3.62466 5.30815 3.45024C5.48257 3.27581 5.58057 3.03924 5.58057 2.79256C5.58057 2.54589 5.48257 2.30931 5.30815 2.13489C5.13372 1.96046 4.89715 1.86247 4.65047 1.86247ZM2.0183 1.86247C2.21046 1.31787 2.56682 0.846278 3.03825 0.512705C3.50967 0.179132 4.07296 0 4.65047 0C5.22798 0 5.79127 0.179132 6.2627 0.512705C6.73413 0.846278 7.09048 1.31787 7.28264 1.86247H13.9514C14.1981 1.86247 14.4347 1.96046 14.6091 2.13489C14.7835 2.30931 14.8815 2.54589 14.8815 2.79256C14.8815 3.03924 14.7835 3.27581 14.6091 3.45024C14.4347 3.62466 14.1981 3.72266 13.9514 3.72266H7.28264C7.09048 4.26726 6.73413 4.73885 6.2627 5.07242C5.79127 5.40599 5.22798 5.58512 4.65047 5.58512C4.07296 5.58512 3.50967 5.40599 3.03825 5.07242C2.56682 4.73885 2.21046 4.26726 2.0183 3.72266H0.930094C0.683418 3.72266 0.446845 3.62466 0.272418 3.45024C0.097992 3.27581 0 3.03924 0 2.79256C0 2.54589 0.097992 2.30931 0.272418 2.13489C0.446845 1.96046 0.683418 1.86247 0.930094 1.86247H2.0183ZM10.231 7.44303C9.98436 7.44303 9.74779 7.54103 9.57336 7.71545C9.39894 7.88988 9.30094 8.12645 9.30094 8.37313C9.30094 8.6198 9.39894 8.85638 9.57336 9.0308C9.74779 9.20523 9.98436 9.30322 10.231 9.30322C10.4777 9.30322 10.7143 9.20523 10.8887 9.0308C11.0631 8.85638 11.1611 8.6198 11.1611 8.37313C11.1611 8.12645 11.0631 7.88988 10.8887 7.71545C10.7143 7.54103 10.4777 7.44303 10.231 7.44303ZM7.59887 7.44303C7.79103 6.89843 8.14738 6.42684 8.61881 6.09327C9.09024 5.7597 9.65353 5.58057 10.231 5.58057C10.8085 5.58057 11.3718 5.7597 11.8433 6.09327C12.3147 6.42684 12.671 6.89843 12.8632 7.44303H13.9514C14.1981 7.44303 14.4347 7.54103 14.6091 7.71545C14.7835 7.88988 14.8815 8.12645 14.8815 8.37313C14.8815 8.6198 14.7835 8.85638 14.6091 9.0308C14.4347 9.20523 14.1981 9.30322 13.9514 9.30322H12.8632C12.671 9.84782 12.3147 10.3194 11.8433 10.653C11.3718 10.9866 10.8085 11.1657 10.231 11.1657C9.65353 11.1657 9.09024 10.9866 8.61881 10.653C8.14738 10.3194 7.79103 9.84782 7.59887 9.30322H0.930094C0.683418 9.30322 0.446845 9.20523 0.272418 9.0308C0.097992 8.85638 0 8.6198 0 8.37313C0 8.12645 0.097992 7.88988 0.272418 7.71545C0.446845 7.54103 0.683418 7.44303 0.930094 7.44303H7.59887Z" fill="#4E3D67"/>
</svg>
