<svg width="8" height="8" viewBox="0 0 8 8" fill="none" xmlns="http://www.w3.org/2000/svg">
<path d="M7.21759 4.19625C8.05497 3.35927 8.05497 2.00311 7.21759 1.16613C6.38022 0.329146 5.0234 0.329146 4.18603 1.16613L3.95081 1.40123L3.81292 1.26338C2.97554 0.426398 1.61873 0.426398 0.781354 1.26338C-0.0560242 2.10036 -0.0560242 3.45652 0.781354 4.2935L3.738 7.24946C3.81223 7.32367 3.84935 7.36078 3.89215 7.37469C3.92979 7.38692 3.97034 7.38693 4.00799 7.3747C4.05079 7.3608 4.08792 7.32371 4.16217 7.24951L7.21759 4.19625Z" fill="#F55A51"/>
<path d="M3.91767 1.43438L3.9508 1.46751L3.98395 1.43439L4.21916 1.19928C5.03824 0.380595 6.36538 0.380595 7.18446 1.19928C8.00352 2.01795 8.00352 3.34442 7.18446 4.16309C7.18446 4.1631 7.18446 4.1631 7.18446 4.1631L4.12903 7.21635C4.09136 7.254 4.06508 7.28021 4.04296 7.29897C4.02127 7.31738 4.00669 7.32584 3.99352 7.33012C3.96528 7.33929 3.93487 7.33928 3.90663 7.33011C3.89346 7.32583 3.87888 7.31736 3.85719 7.29895C3.83509 7.28019 3.80881 7.25396 3.77114 7.21631L0.814496 4.26035L0.814492 4.26035C-0.0045701 3.44168 -0.00457008 2.1152 0.814492 1.29653C1.63356 0.477848 2.96071 0.477847 3.77978 1.29653C3.77978 1.29653 3.77978 1.29653 3.77978 1.29653L3.91767 1.43438Z" stroke="url(#paint0_linear_689_2036)" stroke-opacity="0.8" stroke-width="0.09375" style="mix-blend-mode:soft-light"/>
<defs>
<linearGradient id="paint0_linear_689_2036" x1="0.297506" y1="0.664265" x2="5.83849" y2="7.4076" gradientUnits="userSpaceOnUse">
<stop stop-color="white"/>
<stop offset="1" stop-color="white" stop-opacity="0"/>
</linearGradient>
</defs>
</svg>
