<svg width="20" height="22" viewBox="0 0 20 22" fill="none" xmlns="http://www.w3.org/2000/svg">
<path fill-rule="evenodd" clip-rule="evenodd" d="M1.03264 7.50156C0.666687 8.29722 0.666687 9.20239 0.666687 11.0127V16.6666C0.666687 19.1807 0.666687 20.4378 1.44774 21.2189C2.19348 21.9646 3.37318 21.9983 5.66669 21.9998V15.3333C5.66669 14.0447 6.71136 13 8.00002 13H12C13.2887 13 14.3334 14.0447 14.3334 15.3333V21.9998C16.6269 21.9983 17.8066 21.9646 18.5523 21.2189C19.3334 20.4378 19.3334 19.1807 19.3334 16.6666V11.0127C19.3334 9.20239 19.3334 8.29722 18.9674 7.50156C18.6015 6.70591 17.9142 6.11683 16.5397 4.93868L15.2064 3.79582C12.7219 1.66631 11.4797 0.601562 10 0.601562C8.52032 0.601562 7.27811 1.66632 4.79369 3.79582L3.46036 4.93868C2.08584 6.11683 1.39858 6.70591 1.03264 7.50156ZM12.3334 21.9999V15.3333C12.3334 15.1492 12.1841 15 12 15H8.00002C7.81593 15 7.66669 15.1492 7.66669 15.3333V21.9999H12.3334Z" fill="#FD7685"/>
</svg>
