<svg width="24" height="17" viewBox="0 0 24 17" fill="none" xmlns="http://www.w3.org/2000/svg">
<path d="M0.177063 1.18449C0.177063 0.556205 0.691936 0.046875 1.32706 0.046875H22.0271C22.6622 0.046875 23.1771 0.556205 23.1771 1.18449C23.1771 1.81278 22.6622 2.32211 22.0271 2.32211H1.32706C0.691936 2.32211 0.177063 1.81278 0.177063 1.18449Z" fill="#33363F"/>
<path d="M0.177063 8.04687C0.177063 7.41858 0.691936 6.90926 1.32706 6.90926H22.0271C22.6622 6.90926 23.1771 7.41858 23.1771 8.04687C23.1771 8.67516 22.6622 9.18449 22.0271 9.18449H1.32706C0.691936 9.18449 0.177063 8.67516 0.177063 8.04687Z" fill="#33363F"/>
<path d="M1.32706 13.7716C0.691936 13.7716 0.177063 14.281 0.177063 14.9093C0.177063 15.5375 0.691936 16.0469 1.32706 16.0469H22.0271C22.6622 16.0469 23.1771 15.5375 23.1771 14.9093C23.1771 14.281 22.6622 13.7716 22.0271 13.7716H1.32706Z" fill="#33363F"/>
</svg>
