<svg width="24" height="20" viewBox="0 0 24 20" fill="none" xmlns="http://www.w3.org/2000/svg">
<path fill-rule="evenodd" clip-rule="evenodd" d="M0.838904 1.99992C0.333313 2.75659 0.333313 3.80993 0.333313 5.91663V6.79163C0.333313 7.27488 0.725064 7.66663 1.20831 7.66663H1.49998C2.78864 7.66663 3.83331 8.7113 3.83331 9.99996C3.83331 11.2886 2.78864 12.3333 1.49998 12.3333H1.20831C0.725064 12.3333 0.333313 12.725 0.333313 13.2083V14.0833C0.333313 16.19 0.333313 17.2433 0.838904 18C1.05778 18.3276 1.33903 18.6088 1.6666 18.8277C2.42327 19.3333 3.47662 19.3333 5.58332 19.3333H18.4166C20.5233 19.3333 21.5767 19.3333 22.3334 18.8277C22.6609 18.6088 22.9422 18.3276 23.1611 18C23.6666 17.2433 23.6666 16.19 23.6666 14.0833V13.2083C23.6666 12.725 23.2749 12.3333 22.7916 12.3333H22.5C21.2113 12.3333 20.1666 11.2886 20.1666 9.99996C20.1666 8.7113 21.2113 7.66663 22.5 7.66663H22.7916C23.2749 7.66663 23.6666 7.27488 23.6666 6.79163V5.91663C23.6666 3.80993 23.6666 2.75659 23.1611 1.99992C22.9422 1.67234 22.6609 1.39109 22.3334 1.17222C21.5767 0.666626 20.5233 0.666626 18.4166 0.666626H5.58331C3.47662 0.666626 2.42327 0.666626 1.6666 1.17222C1.33903 1.39109 1.05778 1.67234 0.838904 1.99992ZM11.9364 7.67356C11.7771 7.70873 11.679 7.96246 11.4829 8.46993C11.3713 8.75852 11.3155 8.90282 11.2112 9.00096C11.1819 9.02849 11.1501 9.053 11.1163 9.07417C10.9957 9.14961 10.8451 9.16361 10.544 9.1916C10.0342 9.23898 9.77926 9.26267 9.70142 9.41349C9.6853 9.44473 9.67434 9.47855 9.66899 9.51355C9.64319 9.68254 9.83058 9.85946 10.2054 10.2133L10.3094 10.3116C10.4846 10.477 10.5722 10.5597 10.6229 10.6629C10.6533 10.7249 10.6737 10.7916 10.6833 10.8603C10.6992 10.975 10.6735 11.095 10.6222 11.335L10.6039 11.4207L10.6039 11.4207C10.5119 11.8511 10.4659 12.0663 10.5233 12.1721C10.5749 12.2671 10.6699 12.3279 10.7749 12.3331C10.8917 12.3389 11.0564 12.1997 11.3857 11.9212L11.3857 11.9212C11.6027 11.7377 11.7111 11.646 11.8316 11.6101C11.9416 11.5774 12.0583 11.5774 12.1684 11.6101C12.2888 11.646 12.3973 11.7377 12.6143 11.9212L12.6143 11.9212C12.9436 12.1997 13.1082 12.3389 13.2251 12.3331C13.3301 12.3279 13.4251 12.2671 13.4767 12.1721C13.5341 12.0663 13.4881 11.8511 13.3961 11.4207L13.3961 11.4207L13.3777 11.335L13.3777 11.335C13.3264 11.095 13.3008 10.975 13.3167 10.8603C13.3263 10.7916 13.3466 10.7249 13.377 10.6629C13.4277 10.5597 13.5153 10.477 13.6905 10.3116L13.7946 10.2133C14.1694 9.85946 14.3568 9.68254 14.331 9.51355C14.3256 9.47855 14.3147 9.44473 14.2985 9.41349C14.2207 9.26267 13.9658 9.23898 13.456 9.1916C13.1548 9.16361 13.0043 9.14961 12.8837 9.07417C12.8498 9.053 12.818 9.02849 12.7888 9.00096C12.6844 8.90282 12.6286 8.75852 12.5171 8.46994L12.5171 8.46993C12.3209 7.96246 12.2229 7.70873 12.0635 7.67356C12.0216 7.66431 11.9783 7.66431 11.9364 7.67356Z" fill="#33363F"/>
</svg>
