<svg width="33" height="32" viewBox="0 0 33 32" fill="none" xmlns="http://www.w3.org/2000/svg">
<path d="M4.5 16C4.5 9.37258 9.87258 4 16.5 4C23.1274 4 28.5 9.37258 28.5 16C28.5 22.6274 23.1274 28 16.5 28C9.87258 28 4.5 22.6274 4.5 16Z" fill="#2A4157" fill-opacity="0.24"/>
<circle cx="16.5" cy="13.3333" r="5.33333" fill="#33363F"/>
<path fill-rule="evenodd" clip-rule="evenodd" d="M24.8272 24.3829C24.8846 24.4797 24.8668 24.6029 24.7854 24.6806C22.6315 26.7371 19.7132 28 16.5001 28C13.2869 28 10.3687 26.7371 8.21476 24.6807C8.13336 24.603 8.11564 24.4798 8.173 24.383C9.71371 21.7822 12.8641 20 16.5001 20C20.1361 20 23.2865 21.7821 24.8272 24.3829Z" fill="#33363F"/>
</svg>
