<svg width="17" height="18" viewBox="0 0 17 18" fill="none" xmlns="http://www.w3.org/2000/svg">
<path d="M15.8816 14.8707L12.7461 11.7352C12.6046 11.5937 12.4128 11.5151 12.2115 11.5151H11.6989C12.5669 10.405 13.0826 9.00865 13.0826 7.48968C13.0826 3.87623 10.1548 0.948364 6.54131 0.948364C2.92787 0.948364 0 3.87623 0 7.48968C0 11.1031 2.92787 14.031 6.54131 14.031C8.06028 14.031 9.4566 13.5152 10.5667 12.6473V13.1599C10.5667 13.3611 10.6454 13.553 10.7869 13.6945L13.9223 16.8299C14.2179 17.1255 14.6959 17.1255 14.9884 16.8299L15.8784 15.9399C16.174 15.6443 16.174 15.1663 15.8816 14.8707ZM6.54131 11.5151C4.3179 11.5151 2.51589 9.71624 2.51589 7.48968C2.51589 5.26626 4.31475 3.46425 6.54131 3.46425C8.76473 3.46425 10.5667 5.26312 10.5667 7.48968C10.5667 9.7131 8.76788 11.5151 6.54131 11.5151Z" fill="#4E3D67"/>
</svg>
