<svg width="22" height="13" viewBox="0 0 22 13" fill="none" xmlns="http://www.w3.org/2000/svg">
<path fill-rule="evenodd" clip-rule="evenodd" d="M22 6.5C22 10.0899 19.1565 13 15.6488 13C12.1411 13 9.29762 10.0899 9.29762 6.5C9.29762 2.91015 12.1411 0 15.6488 0C19.1565 0 22 2.91015 22 6.5ZM14.7163 6.85671C14.7077 6.81857 14.7021 6.77924 14.6995 6.73893L14.3889 1.8361C14.3632 1.42986 14.6641 1.07918 15.061 1.05285C15.458 1.02651 15.8006 1.33448 15.8264 1.74072L16.1278 6.49952L18.5626 8.49557C18.8731 8.75008 18.9232 9.21398 18.6745 9.5317C18.4258 9.84943 17.9725 9.90068 17.6621 9.64617L14.986 7.45231C14.803 7.30227 14.7104 7.07945 14.7163 6.85671Z" fill="#F55A51"/>
<path d="M3.04464 1.20619C2.55646 1.20619 2.16071 1.61121 2.16071 2.11082C2.16071 2.61044 2.55646 3.01546 3.04464 3.01546H7.69345C8.18163 3.01546 8.57738 2.61044 8.57738 2.11082C8.57738 1.61121 8.18163 1.20619 7.69345 1.20619H3.04464Z" fill="#F55A51"/>
<path d="M0 6.5335C0 6.03389 0.395748 5.62887 0.883929 5.62887H5.59821C6.08639 5.62887 6.48214 6.03389 6.48214 6.5335C6.48214 7.03312 6.08639 7.43814 5.59821 7.43814H0.883929C0.395748 7.43814 0 7.03312 0 6.5335Z" fill="#F55A51"/>
<path d="M3.04464 10.0515C2.55646 10.0515 2.16071 10.4566 2.16071 10.9562C2.16071 11.4558 2.55646 11.8608 3.04464 11.8608H7.69345C8.18163 11.8608 8.57738 11.4558 8.57738 10.9562C8.57738 10.4566 8.18163 10.0515 7.69345 10.0515H3.04464Z" fill="#F55A51"/>
</svg>
