<svg width="10" height="12" viewBox="0 0 10 12" fill="none" xmlns="http://www.w3.org/2000/svg">
<path d="M0.321164 4.65242H8.91286C9.0466 4.65242 9.15602 4.76611 9.15602 4.90508V10.3794C9.15602 10.9373 8.72035 11.39 8.18337 11.39H1.05065C0.513667 11.39 0.0780029 10.9373 0.0780029 10.3794V4.90508C0.0780029 4.76611 0.187425 4.65242 0.321164 4.65242ZM9.15602 3.726V2.96802C9.15602 2.41006 8.72035 1.95738 8.18337 1.95738H7.21073V0.862523C7.21073 0.72356 7.10131 0.609863 6.96757 0.609863H6.15703C6.02329 0.609863 5.91387 0.72356 5.91387 0.862523V1.95738H3.32015V0.862523C3.32015 0.72356 3.21073 0.609863 3.07699 0.609863H2.26645C2.13271 0.609863 2.02329 0.72356 2.02329 0.862523V1.95738H1.05065C0.513667 1.95738 0.0780029 2.41006 0.0780029 2.96802V3.726C0.0780029 3.86496 0.187425 3.97866 0.321164 3.97866H8.91286C9.0466 3.97866 9.15602 3.86496 9.15602 3.726Z" fill="white"/>
</svg>
