<svg width="14" height="17" viewBox="0 0 14 17" fill="none" xmlns="http://www.w3.org/2000/svg">
<path d="M11 10.2083C10.2935 10.2083 9.64416 10.4578 9.13156 10.8749L5.92887 8.83152C6.02372 8.39356 6.02372 7.93974 5.92887 7.50179L9.13156 5.4584C9.64416 5.87557 10.2935 6.125 11 6.125C12.6568 6.125 14 4.75386 14 3.0625C14 1.37114 12.6568 0 11 0C9.34316 0 8 1.37114 8 3.0625C8 3.29085 8.02469 3.51326 8.07113 3.72735L4.86844 5.77074C4.35584 5.3536 3.7065 5.10417 3 5.10417C1.34316 5.10417 0 6.47531 0 8.16667C0 9.85803 1.34316 11.2292 3 11.2292C3.7065 11.2292 4.35584 10.9797 4.86844 10.5626L8.07113 12.606C8.02379 12.8243 7.99994 13.0472 8 13.2708C8 14.9622 9.34316 16.3333 11 16.3333C12.6568 16.3333 14 14.9622 14 13.2708C14 11.5795 12.6568 10.2083 11 10.2083Z" fill="#F55A51"/>
</svg>
