<svg width="24" height="25" viewBox="0 0 24 25" fill="none" xmlns="http://www.w3.org/2000/svg">
<path d="M9.06742 2.73308C10.1651 0.0889734 13.8349 0.0889746 14.9326 2.73308L15.6972 4.57479C16.1467 5.65762 17.1337 6.40829 18.2784 6.53802L20.4121 6.77981C23.1066 7.08516 24.2195 10.4694 22.2516 12.3736L20.44 14.1265C19.6435 14.8972 19.2916 16.0322 19.5086 17.1306L19.946 19.3448C20.4996 22.1475 17.4971 24.2636 15.1273 22.7409L13.6964 21.8215C12.6595 21.1553 11.3405 21.1553 10.3036 21.8215L8.87274 22.7409C6.50292 24.2636 3.50039 22.1475 4.05404 19.3448L4.49144 17.1306C4.70841 16.0322 4.35647 14.8972 3.55997 14.1265L1.74839 12.3736C-0.219524 10.4694 0.893395 7.08516 3.58793 6.77981L5.72157 6.53802C6.86631 6.40829 7.85329 5.65762 8.30283 4.57478L9.06742 2.73308Z" stroke="white" stroke-width="1.5" stroke-linecap="round" stroke-linejoin="round"/>
</svg>
