<svg width="15" height="15" viewBox="0 0 15 15" fill="none" xmlns="http://www.w3.org/2000/svg">
<path d="M8.62236 13.9953L7.87914 14.7578C7.56445 15.0807 7.05557 15.0807 6.74422 14.7578L0.236023 8.08392C-0.0786746 7.76105 -0.0786746 7.23895 0.236023 6.91951L6.74423 0.242157C7.05892 -0.0807187 7.56779 -0.0807187 7.87914 0.242157L8.62236 1.00469C8.94041 1.331 8.93371 1.86341 8.60897 2.18285L4.57482 6.12606L14.1965 6.12606C14.6418 6.12606 15 6.49359 15 6.95042L15 8.04958C15 8.50641 14.6418 8.87394 14.1965 8.87394L4.57482 8.87394L8.60897 12.8172C8.93706 13.1366 8.94376 13.669 8.62236 13.9953Z" fill="#F55A51"/>
</svg>
